M48
;Layer_Color=9474304
;FILE_FORMAT=2:4
INCH
;TYPE=PLATED
T1F00S00C0.0280
T2F00S00C0.0300
T3F00S00C0.0354
T4F00S00C0.1378
%
T01
X004813Y001811
X006053Y001870
X006526Y001250
X006882Y000600
X008859Y000600
X007431Y002746
X007490Y003632
X007372Y005659
X006063Y004636
X009892Y003829
X011555Y005787
X014223Y005738
X014557Y002215
X014518Y000679
X012224Y002402
X012175Y006585
X006260Y006191
X006882Y012411
X006526Y013061
X006053Y013681
X007431Y014557
X007490Y015443
X007372Y017470
X006260Y018002
X006063Y016447
X009892Y015640
X011555Y017598
X012175Y018396
X014223Y017549
X014557Y014026
X014518Y012490
X012224Y014213
X008859Y012411
X004813Y013622
X004656Y017992
X002687Y017933
Y006122
X004656Y006181
T02
X006102Y007116
X007087
X009213
X010197
X011181
Y018927
X010197
X009213
X007087
X006102
X005118
X002992
X002008
X001024
Y007116
X002008
X002992
X005118
T03
X000585Y000591
X001585
X002770
X003770
X000935Y003167
Y004167
Y005167
X000585Y012402
X001585
X002770
X003770
X000935Y014978
Y015978
Y016978
T04
X018720Y009843
X000955
M30
