M48
;Layer_Color=9474304
;FILE_FORMAT=2:4
INCH
;TYPE=PLATED
T1F00S00C0.0280
T2F00S00C0.0300
T3F00S00C0.0354
%
T01
X006329Y001034
X006358Y001742
X006851Y000581
X008859
X007431Y002746
X007490Y003632
X007372Y005659
X006063Y004636
X009892Y003829
X012224Y002402
X014557Y002215
X013327Y000423
X014223Y005738
X011811Y006201
X006260Y006191
X004656Y006181
X002687Y006122
T02
X006102Y007116
X007087
X009213
X010197
X011181
X005118
X002992
X002008
X001024
T03
X000585Y000591
X001585
X002770
X003770
X000935Y003167
Y004167
Y005167
M30
