G04 Layer_Color=65535*
%FSLAX24Y24*%
%MOIN*%
G70*
G01*
G75*
%ADD16C,0.0100*%
%ADD27C,0.0098*%
%ADD28C,0.0050*%
%ADD29C,0.0079*%
%ADD30C,0.0059*%
%ADD31R,0.3110X0.2480*%
D16*
X15848Y18358D02*
G03*
X15828Y17759I257J-308D01*
G01*
X15848Y6547D02*
G03*
X15828Y5948I257J-308D01*
G01*
X49Y11634D02*
X19636D01*
X12755Y16985D02*
Y18985D01*
X15855Y18385D02*
Y19010D01*
Y16985D02*
Y17735D01*
X13905Y18985D02*
X14705D01*
X13905Y16935D02*
X14715D01*
X89Y8100D02*
X19675D01*
X7096Y13091D02*
X8533D01*
X7096D02*
Y13425D01*
X8533D01*
Y13091D02*
Y13425D01*
X9646Y13396D02*
X11083D01*
Y13061D02*
Y13396D01*
X9646Y13061D02*
X11083D01*
X9646D02*
Y13396D01*
X12755Y5174D02*
Y7174D01*
X15855Y6574D02*
Y7199D01*
Y5174D02*
Y5924D01*
X13905Y7174D02*
X14705D01*
X13905Y5124D02*
X14715D01*
X9646Y1585D02*
X11083D01*
Y1250D02*
Y1585D01*
X9646Y1250D02*
X11083D01*
X9646D02*
Y1585D01*
X7096Y1280D02*
X8533D01*
X7096D02*
Y1614D01*
X8533D01*
Y1280D02*
Y1614D01*
D27*
X4478Y13829D02*
G03*
X4478Y13829I-49J0D01*
G01*
Y2018D02*
G03*
X4478Y2018I-49J0D01*
G01*
D28*
X3496Y19636D02*
X3996Y19136D01*
X59Y17667D02*
Y19136D01*
X559Y19636D01*
X3496D01*
X3996Y17667D02*
Y19136D01*
X59Y17667D02*
X3996D01*
X7591Y19636D02*
X8091Y19136D01*
X4154Y17667D02*
Y19136D01*
X4654Y19636D01*
X7591D01*
X8091Y17667D02*
Y19136D01*
X4154Y17667D02*
X8091D01*
X11685Y19636D02*
X12185Y19136D01*
X8248Y17667D02*
Y19136D01*
X8748Y19636D01*
X11685D01*
X12185Y17667D02*
Y19136D01*
X8248Y17667D02*
X12185D01*
X3496Y7825D02*
X3996Y7325D01*
X59Y5856D02*
Y7325D01*
X559Y7825D01*
X3496D01*
X3996Y5856D02*
Y7325D01*
X59Y5856D02*
X3996D01*
X7591Y7825D02*
X8091Y7325D01*
X4154Y5856D02*
Y7325D01*
X4654Y7825D01*
X7591D01*
X8091Y5856D02*
Y7325D01*
X4154Y5856D02*
X8091D01*
X11685Y7825D02*
X12185Y7325D01*
X8248Y5856D02*
Y7325D01*
X8748Y7825D01*
X11685D01*
X12185Y5856D02*
Y7325D01*
X8248Y5856D02*
X12185D01*
D29*
X2736Y16467D02*
X3839D01*
X2736Y13829D02*
X3839D01*
X2736D02*
Y16467D01*
X3839Y13829D02*
Y16467D01*
X-1398Y14812D02*
X-65D01*
X-1565Y14978D02*
X-1398Y14812D01*
X-1565Y14978D02*
X-1398Y15145D01*
X-65D01*
X-1398Y15812D02*
X-65D01*
X-1565Y15978D02*
X-1398Y15812D01*
X-1565Y15978D02*
X-1398Y16145D01*
X-65D01*
X-1398Y16812D02*
X-65D01*
X-1565Y16978D02*
X-1398Y16812D01*
X-1565Y16978D02*
X-1398Y17145D01*
X-65D01*
X435Y14478D02*
Y17478D01*
X-65D02*
X435D01*
X-65Y14478D02*
X435D01*
X-65D02*
Y17478D01*
X2270Y11902D02*
X4270D01*
Y12902D01*
X2270D02*
X4270D01*
X2270Y11902D02*
Y12902D01*
X85Y11902D02*
X2085D01*
Y12902D01*
X85D02*
X2085D01*
X85Y11902D02*
Y12902D01*
X5305Y13356D02*
X5817D01*
X5246Y15463D02*
X5758D01*
X4193Y16811D02*
Y17323D01*
X85Y91D02*
X2085D01*
Y1091D01*
X85D02*
X2085D01*
X85Y91D02*
Y1091D01*
X2736Y4656D02*
X3839D01*
X2736Y2018D02*
X3839D01*
X2736D02*
Y4656D01*
X3839Y2018D02*
Y4656D01*
X2270Y91D02*
X4270D01*
Y1091D01*
X2270D02*
X4270D01*
X2270Y91D02*
Y1091D01*
X-1398Y3001D02*
X-65D01*
X-1565Y3167D02*
X-1398Y3001D01*
X-1565Y3167D02*
X-1398Y3334D01*
X-65D01*
X-1398Y4001D02*
X-65D01*
X-1565Y4167D02*
X-1398Y4001D01*
X-1565Y4167D02*
X-1398Y4334D01*
X-65D01*
X-1398Y5001D02*
X-65D01*
X-1565Y5167D02*
X-1398Y5001D01*
X-1565Y5167D02*
X-1398Y5334D01*
X-65D01*
X435Y2667D02*
Y5667D01*
X-65D02*
X435D01*
X-65Y2667D02*
X435D01*
X-65D02*
Y5667D01*
X4193Y5000D02*
Y5512D01*
X5246Y3652D02*
X5758D01*
X5305Y1545D02*
X5817D01*
D30*
X14091Y16578D02*
X14026Y16644D01*
X13894D01*
X13829Y16578D01*
Y16316D01*
X13894Y16250D01*
X14026D01*
X14091Y16316D01*
X14222Y16644D02*
Y16250D01*
X14485D01*
X14616Y16644D02*
Y16250D01*
Y16381D01*
X14878Y16644D01*
X14681Y16447D01*
X14878Y16250D01*
X3091Y14813D02*
X3419D01*
X3484Y14879D01*
Y15010D01*
X3419Y15075D01*
X3091D01*
X3484Y15469D02*
Y15207D01*
X3222Y15469D01*
X3156D01*
X3091Y15403D01*
Y15272D01*
X3156Y15207D01*
X8780Y14528D02*
Y14921D01*
X8976D01*
X9042Y14856D01*
Y14724D01*
X8976Y14659D01*
X8780D01*
X8911D02*
X9042Y14528D01*
X9435Y14921D02*
X9304Y14856D01*
X9173Y14724D01*
Y14593D01*
X9239Y14528D01*
X9370D01*
X9435Y14593D01*
Y14659D01*
X9370Y14724D01*
X9173D01*
X3819Y13150D02*
Y13543D01*
X4016D01*
X4081Y13478D01*
Y13346D01*
X4016Y13281D01*
X3819D01*
X3950D02*
X4081Y13150D01*
X4212D02*
X4344D01*
X4278D01*
Y13543D01*
X4212Y13478D01*
X226Y13898D02*
Y14291D01*
X423D01*
X489Y14226D01*
Y14094D01*
X423Y14029D01*
X226D01*
X620Y14291D02*
Y13898D01*
X751Y14029D01*
X882Y13898D01*
Y14291D01*
X1014Y13898D02*
Y14291D01*
X1145Y14160D01*
X1276Y14291D01*
Y13898D01*
X2510Y13514D02*
X2379D01*
X2313Y13448D01*
Y13186D01*
X2379Y13120D01*
X2510D01*
X2575Y13186D01*
Y13448D01*
X2510Y13514D01*
X2707D02*
Y13186D01*
X2772Y13120D01*
X2903D01*
X2969Y13186D01*
Y13514D01*
X3100D02*
X3363D01*
X3231D01*
Y13120D01*
X768Y13474D02*
X899D01*
X833D01*
Y13081D01*
X768D01*
X899D01*
X1096D02*
Y13474D01*
X1358Y13081D01*
Y13474D01*
X7874Y14386D02*
Y14124D01*
Y14255D01*
X7940Y14321D01*
X8005Y14386D01*
X8071D01*
X8268D02*
X8530Y14124D01*
X8399Y14255D01*
X8530Y14386D01*
X8268Y14124D01*
X11375Y12907D02*
Y12841D01*
X11309D01*
X11440D01*
X11375D01*
Y12644D01*
X11440Y12579D01*
X11637Y12841D02*
X11899Y12579D01*
X11768Y12710D01*
X11899Y12841D01*
X11637Y12579D01*
X5955Y12431D02*
Y12037D01*
X6152D01*
X6217Y12103D01*
Y12365D01*
X6152Y12431D01*
X5955D01*
X6348Y12037D02*
X6479D01*
X6414D01*
Y12431D01*
X6348Y12365D01*
X6286Y15899D02*
X6220Y15964D01*
X6089D01*
X6024Y15899D01*
Y15636D01*
X6089Y15571D01*
X6220D01*
X6286Y15636D01*
X6417Y15899D02*
X6483Y15964D01*
X6614D01*
X6680Y15899D01*
Y15833D01*
X6614Y15768D01*
X6548D01*
X6614D01*
X6680Y15702D01*
Y15636D01*
X6614Y15571D01*
X6483D01*
X6417Y15636D01*
X5410Y15987D02*
X5344Y16053D01*
X5213D01*
X5148Y15987D01*
Y15725D01*
X5213Y15659D01*
X5344D01*
X5410Y15725D01*
X5804Y15659D02*
X5541D01*
X5804Y15922D01*
Y15987D01*
X5738Y16053D01*
X5607D01*
X5541Y15987D01*
X6099Y17208D02*
X6033Y17273D01*
X5902D01*
X5837Y17208D01*
Y16946D01*
X5902Y16880D01*
X6033D01*
X6099Y16946D01*
X6230Y16880D02*
X6361D01*
X6296D01*
Y17273D01*
X6230Y17208D01*
X6099Y5397D02*
X6033Y5462D01*
X5902D01*
X5837Y5397D01*
Y5134D01*
X5902Y5069D01*
X6033D01*
X6099Y5134D01*
X6230Y5069D02*
X6361D01*
X6296D01*
Y5462D01*
X6230Y5397D01*
X5410Y4176D02*
X5344Y4242D01*
X5213D01*
X5148Y4176D01*
Y3914D01*
X5213Y3848D01*
X5344D01*
X5410Y3914D01*
X5804Y3848D02*
X5541D01*
X5804Y4111D01*
Y4176D01*
X5738Y4242D01*
X5607D01*
X5541Y4176D01*
X6286Y4088D02*
X6220Y4153D01*
X6089D01*
X6024Y4088D01*
Y3825D01*
X6089Y3760D01*
X6220D01*
X6286Y3825D01*
X6417Y4088D02*
X6483Y4153D01*
X6614D01*
X6680Y4088D01*
Y4022D01*
X6614Y3957D01*
X6548D01*
X6614D01*
X6680Y3891D01*
Y3825D01*
X6614Y3760D01*
X6483D01*
X6417Y3825D01*
X5955Y620D02*
Y226D01*
X6152D01*
X6217Y292D01*
Y554D01*
X6152Y620D01*
X5955D01*
X6348Y226D02*
X6479D01*
X6414D01*
Y620D01*
X6348Y554D01*
X11375Y1096D02*
Y1030D01*
X11309D01*
X11440D01*
X11375D01*
Y833D01*
X11440Y768D01*
X11637Y1030D02*
X11899Y768D01*
X11768Y899D01*
X11899Y1030D01*
X11637Y768D01*
X7874Y2575D02*
Y2313D01*
Y2444D01*
X7940Y2510D01*
X8005Y2575D01*
X8071D01*
X8268D02*
X8530Y2313D01*
X8399Y2444D01*
X8530Y2575D01*
X8268Y2313D01*
X13934Y4757D02*
X13868Y4823D01*
X13737D01*
X13671Y4757D01*
Y4495D01*
X13737Y4429D01*
X13868D01*
X13934Y4495D01*
X14065Y4823D02*
Y4429D01*
X14327D01*
X14458Y4823D02*
Y4429D01*
Y4560D01*
X14721Y4823D01*
X14524Y4626D01*
X14721Y4429D01*
X768Y1663D02*
X899D01*
X833D01*
Y1270D01*
X768D01*
X899D01*
X1096D02*
Y1663D01*
X1358Y1270D01*
Y1663D01*
X2510Y1703D02*
X2379D01*
X2313Y1637D01*
Y1375D01*
X2379Y1309D01*
X2510D01*
X2575Y1375D01*
Y1637D01*
X2510Y1703D01*
X2707D02*
Y1375D01*
X2772Y1309D01*
X2903D01*
X2969Y1375D01*
Y1703D01*
X3100D02*
X3363D01*
X3231D01*
Y1309D01*
X226Y2087D02*
Y2480D01*
X423D01*
X489Y2415D01*
Y2283D01*
X423Y2218D01*
X226D01*
X620Y2480D02*
Y2087D01*
X751Y2218D01*
X882Y2087D01*
Y2480D01*
X1014Y2087D02*
Y2480D01*
X1145Y2349D01*
X1276Y2480D01*
Y2087D01*
X3819Y1339D02*
Y1732D01*
X4016D01*
X4081Y1667D01*
Y1535D01*
X4016Y1470D01*
X3819D01*
X3950D02*
X4081Y1339D01*
X4212D02*
X4344D01*
X4278D01*
Y1732D01*
X4212Y1667D01*
X8780Y2717D02*
Y3110D01*
X8976D01*
X9042Y3045D01*
Y2913D01*
X8976Y2848D01*
X8780D01*
X8911D02*
X9042Y2717D01*
X9435Y3110D02*
X9304Y3045D01*
X9173Y2913D01*
Y2782D01*
X9239Y2717D01*
X9370D01*
X9435Y2782D01*
Y2848D01*
X9370Y2913D01*
X9173D01*
X3091Y3002D02*
X3419D01*
X3484Y3068D01*
Y3199D01*
X3419Y3264D01*
X3091D01*
X3484Y3658D02*
Y3396D01*
X3222Y3658D01*
X3156D01*
X3091Y3592D01*
Y3461D01*
X3156Y3396D01*
D31*
X17805Y18130D02*
D03*
Y6260D02*
D03*
M02*
