G04 Layer_Physical_Order=1*
G04 Layer_Color=255*
%FSLAX24Y24*%
%MOIN*%
G70*
G01*
G75*
%ADD10R,0.0591X0.0512*%
%ADD11R,0.0236X0.0413*%
%ADD12R,0.0700X0.0790*%
%ADD13R,0.0512X0.0591*%
%ADD14R,0.0945X0.0394*%
%ADD15R,0.0945X0.1299*%
%ADD16C,0.0100*%
%ADD17R,0.0591X0.0591*%
%ADD18C,0.0591*%
%ADD19R,0.0591X0.0591*%
%ADD20C,0.0600*%
%ADD21C,0.0500*%
G36*
X9543Y3865D02*
X9539Y3829D01*
X9551Y3737D01*
X9586Y3652D01*
X9642Y3579D01*
X9715Y3523D01*
X9800Y3488D01*
X9892Y3476D01*
X9983Y3488D01*
X10007Y3498D01*
X10863Y2641D01*
Y2256D01*
X10658D01*
X10499Y2414D01*
X10450Y2447D01*
X10391Y2458D01*
X9509D01*
Y2620D01*
X9100D01*
Y3209D01*
X9088Y3267D01*
X9055Y3317D01*
X8632Y3740D01*
X8582Y3773D01*
X8524Y3785D01*
X7806D01*
X7796Y3808D01*
X7762Y3852D01*
X7787Y3902D01*
X9510D01*
X9543Y3865D01*
D02*
G37*
G36*
X5967Y6384D02*
X5954Y6367D01*
X5919Y6282D01*
X5907Y6191D01*
X5919Y6100D01*
X5954Y6014D01*
X6010Y5941D01*
X6083Y5885D01*
X6168Y5850D01*
X6260Y5838D01*
X6351Y5850D01*
X6436Y5885D01*
X6509Y5941D01*
X6566Y6014D01*
X6575Y6038D01*
X7241D01*
X7251Y5988D01*
X7196Y5965D01*
X7122Y5909D01*
X7066Y5836D01*
X7031Y5751D01*
X7019Y5659D01*
X7031Y5568D01*
X7066Y5483D01*
X7122Y5410D01*
X7196Y5354D01*
X7281Y5318D01*
X7372Y5306D01*
X7463Y5318D01*
X7549Y5354D01*
X7622Y5410D01*
X7678Y5483D01*
X7696Y5526D01*
X10567D01*
X11195Y4897D01*
Y2796D01*
X11145Y2781D01*
X11124Y2812D01*
X10223Y3714D01*
X10233Y3737D01*
X10245Y3829D01*
X10233Y3920D01*
X10197Y4005D01*
X10141Y4078D01*
X10068Y4134D01*
X9983Y4170D01*
X9892Y4182D01*
X9800Y4170D01*
X9777Y4160D01*
X9773Y4163D01*
X9724Y4196D01*
X9665Y4208D01*
X7106D01*
X7048Y4196D01*
X6998Y4163D01*
X6478Y3643D01*
X5943D01*
Y3643D01*
X5897Y3633D01*
Y3633D01*
X5107D01*
Y3490D01*
X5002D01*
Y3633D01*
X4102D01*
X4083Y3680D01*
X4349Y3945D01*
X5002D01*
Y4539D01*
X4720D01*
Y4861D01*
X4909D01*
X4923Y4861D01*
Y4861D01*
X4959D01*
Y4861D01*
X5265D01*
Y5256D01*
Y5651D01*
X5229D01*
X5209Y5697D01*
X5929Y6417D01*
X5967Y6384D01*
D02*
G37*
G36*
X10412Y1532D02*
X10391Y1482D01*
X10177D01*
X10119Y1470D01*
X10069Y1437D01*
X9892Y1260D01*
X9859Y1210D01*
X9855Y1193D01*
X9782D01*
Y596D01*
X9210D01*
X9200Y672D01*
X9164Y757D01*
X9108Y830D01*
X9035Y886D01*
X8950Y922D01*
X8859Y934D01*
X8767Y922D01*
X8682Y886D01*
X8609Y830D01*
X8553Y757D01*
X8518Y672D01*
X8506Y581D01*
X8518Y489D01*
X8553Y404D01*
X8571Y380D01*
X8547Y330D01*
X7187D01*
X7162Y380D01*
X7179Y406D01*
X7611D01*
X7670Y417D01*
X7719Y451D01*
X7915Y646D01*
X7961Y627D01*
Y609D01*
X8397D01*
Y917D01*
X8673Y1193D01*
X8719Y1173D01*
Y1160D01*
X9509D01*
Y1363D01*
X9567D01*
X9625Y1374D01*
X9675Y1408D01*
X9910Y1642D01*
X10218D01*
Y1672D01*
X10268Y1676D01*
X10412Y1532D01*
D02*
G37*
G36*
X19685Y0D02*
X13360D01*
X13337Y50D01*
X13358Y74D01*
X13418Y82D01*
X13503Y117D01*
X13576Y174D01*
X13633Y247D01*
X13668Y332D01*
X13680Y423D01*
X13668Y515D01*
X13633Y600D01*
X13576Y673D01*
X13503Y729D01*
X13418Y764D01*
X13327Y776D01*
X13235Y764D01*
X13150Y729D01*
X13077Y673D01*
X13021Y600D01*
X12986Y515D01*
X12974Y423D01*
X12979Y380D01*
X12936Y330D01*
X10322D01*
X10301Y380D01*
X10482Y561D01*
X10494Y579D01*
X10698D01*
Y886D01*
X10748D01*
Y936D01*
X10966D01*
Y1176D01*
X10994D01*
X11053Y1187D01*
X11102Y1221D01*
X11457Y1575D01*
X11490Y1625D01*
X11501Y1683D01*
Y4961D01*
X11490Y5019D01*
X11457Y5069D01*
X10738Y5787D01*
X10688Y5820D01*
X10630Y5832D01*
X7679D01*
X7678Y5836D01*
X7622Y5909D01*
X7549Y5965D01*
X7493Y5988D01*
X7503Y6038D01*
X11500D01*
X11505Y6024D01*
X11561Y5951D01*
X11635Y5895D01*
X11720Y5860D01*
X11811Y5848D01*
X11902Y5860D01*
X11988Y5895D01*
X12061Y5951D01*
X12117Y6024D01*
X12152Y6109D01*
X12164Y6201D01*
X12152Y6292D01*
X12117Y6377D01*
X12061Y6450D01*
X11988Y6507D01*
X11902Y6542D01*
X11811Y6554D01*
X11720Y6542D01*
X11635Y6507D01*
X11561Y6450D01*
X11505Y6377D01*
X11491Y6344D01*
X6575D01*
X6566Y6367D01*
X6509Y6441D01*
X6436Y6497D01*
X6351Y6532D01*
X6260Y6544D01*
X6168Y6532D01*
X6083Y6497D01*
X6066Y6484D01*
X6033Y6521D01*
X6211Y6698D01*
X6238Y6739D01*
X6304Y6767D01*
X6388Y6831D01*
X6452Y6914D01*
X6492Y7012D01*
X6506Y7116D01*
X6492Y7221D01*
X6452Y7318D01*
X6388Y7401D01*
X6331Y7445D01*
X6348Y7495D01*
X6492D01*
X6717Y7269D01*
X6697Y7221D01*
X6683Y7116D01*
X6697Y7012D01*
X6737Y6914D01*
X6801Y6831D01*
X6885Y6767D01*
X6982Y6726D01*
X7087Y6713D01*
X7191Y6726D01*
X7288Y6767D01*
X7372Y6831D01*
X7436Y6914D01*
X7476Y7012D01*
X7490Y7116D01*
X7476Y7221D01*
X7456Y7269D01*
X7662Y7475D01*
X8941D01*
X8958Y7425D01*
X8927Y7401D01*
X8863Y7318D01*
X8823Y7221D01*
X8816Y7166D01*
X9609D01*
X9602Y7221D01*
X9562Y7318D01*
X9498Y7401D01*
X9467Y7425D01*
X9484Y7475D01*
X9925D01*
X9942Y7425D01*
X9912Y7401D01*
X9847Y7318D01*
X9807Y7221D01*
X9793Y7116D01*
X9807Y7012D01*
X9847Y6914D01*
X9912Y6831D01*
X9995Y6767D01*
X10092Y6726D01*
X10197Y6713D01*
X10301Y6726D01*
X10399Y6767D01*
X10482Y6831D01*
X10546Y6914D01*
X10587Y7012D01*
X10600Y7116D01*
X10587Y7221D01*
X10546Y7318D01*
X10482Y7401D01*
X10451Y7425D01*
X10468Y7475D01*
X10606D01*
X10812Y7269D01*
X10791Y7221D01*
X10778Y7116D01*
X10791Y7012D01*
X10832Y6914D01*
X10896Y6831D01*
X10979Y6767D01*
X11077Y6726D01*
X11181Y6713D01*
X11286Y6726D01*
X11383Y6767D01*
X11466Y6831D01*
X11530Y6914D01*
X11571Y7012D01*
X11585Y7116D01*
X11571Y7221D01*
X11530Y7318D01*
X11466Y7401D01*
X11383Y7466D01*
X11286Y7506D01*
X11181Y7520D01*
X11077Y7506D01*
X11028Y7486D01*
X10777Y7736D01*
X10728Y7769D01*
X10669Y7781D01*
X7598D01*
X7540Y7769D01*
X7490Y7736D01*
X7240Y7486D01*
X7191Y7506D01*
X7087Y7520D01*
X6982Y7506D01*
X6933Y7486D01*
X6663Y7756D01*
X6614Y7789D01*
X6555Y7801D01*
X3524D01*
X3465Y7789D01*
X3415Y7756D01*
X3145Y7486D01*
X3097Y7506D01*
X2992Y7520D01*
X2888Y7506D01*
X2790Y7466D01*
X2707Y7401D01*
X2643Y7318D01*
X2602Y7221D01*
X2589Y7116D01*
X2602Y7012D01*
X2643Y6914D01*
X2707Y6831D01*
X2790Y6767D01*
X2888Y6726D01*
X2992Y6713D01*
X3097Y6726D01*
X3194Y6767D01*
X3277Y6831D01*
X3342Y6914D01*
X3382Y7012D01*
X3396Y7116D01*
X3382Y7221D01*
X3362Y7269D01*
X3587Y7495D01*
X4872D01*
X4889Y7445D01*
X4833Y7401D01*
X4769Y7318D01*
X4728Y7221D01*
X4721Y7166D01*
X5515D01*
X5508Y7221D01*
X5468Y7318D01*
X5403Y7401D01*
X5347Y7445D01*
X5364Y7495D01*
X5857D01*
X5873Y7445D01*
X5817Y7401D01*
X5753Y7318D01*
X5713Y7221D01*
X5699Y7116D01*
X5713Y7012D01*
X5753Y6914D01*
X5817Y6831D01*
X5840Y6813D01*
X5843Y6764D01*
X4731Y5651D01*
X4211D01*
Y4861D01*
X4414D01*
Y4539D01*
X3857D01*
Y3945D01*
X3857D01*
X3874Y3903D01*
X2764Y2794D01*
X2718Y2813D01*
Y4086D01*
X1843D01*
X1824Y4132D01*
X3719Y6028D01*
X4340D01*
X4350Y6005D01*
X4406Y5931D01*
X4479Y5875D01*
X4564Y5840D01*
X4656Y5828D01*
X4747Y5840D01*
X4832Y5875D01*
X4905Y5931D01*
X4961Y6005D01*
X4997Y6090D01*
X5009Y6181D01*
X4997Y6272D01*
X4961Y6358D01*
X4905Y6431D01*
X4832Y6487D01*
X4747Y6522D01*
X4656Y6534D01*
X4564Y6522D01*
X4479Y6487D01*
X4406Y6431D01*
X4350Y6358D01*
X4340Y6334D01*
X3656D01*
X3597Y6322D01*
X3548Y6289D01*
X1415Y4157D01*
X1382Y4107D01*
X1370Y4048D01*
Y3819D01*
X1085Y3533D01*
X1038Y3552D01*
X935Y3566D01*
X832Y3552D01*
X736Y3513D01*
X653Y3449D01*
X590Y3367D01*
X550Y3271D01*
X536Y3167D01*
X550Y3064D01*
X590Y2968D01*
X653Y2885D01*
X736Y2822D01*
X832Y2782D01*
X935Y2769D01*
X1038Y2782D01*
X1134Y2822D01*
X1217Y2885D01*
X1280Y2968D01*
X1320Y3064D01*
X1334Y3167D01*
X1320Y3271D01*
X1301Y3317D01*
X1527Y3543D01*
X1573Y3524D01*
Y2587D01*
X2492D01*
X2512Y2541D01*
X1477Y1506D01*
X1443Y1456D01*
X1432Y1398D01*
Y986D01*
X1189D01*
Y195D01*
X1980D01*
Y986D01*
X1738D01*
Y1334D01*
X3810Y3407D01*
X3857Y3388D01*
Y3040D01*
X5002D01*
Y3184D01*
X5107D01*
Y2935D01*
X5107Y2922D01*
Y2885D01*
X5107Y2872D01*
Y2580D01*
X5502D01*
Y2530D01*
X5552D01*
Y2174D01*
X5897D01*
Y2174D01*
X5943Y2183D01*
X5947Y2183D01*
X6289D01*
Y2539D01*
X6339D01*
Y2589D01*
X6734D01*
Y2882D01*
X6734Y2895D01*
Y2932D01*
X6734Y2945D01*
Y3466D01*
X7148Y3881D01*
X7174Y3878D01*
X7197Y3824D01*
X7184Y3808D01*
X7149Y3723D01*
X7137Y3632D01*
X7149Y3541D01*
X7184Y3455D01*
X7241Y3382D01*
X7314Y3326D01*
X7399Y3291D01*
X7490Y3279D01*
X7582Y3291D01*
X7667Y3326D01*
X7740Y3382D01*
X7796Y3455D01*
X7806Y3479D01*
X8460D01*
X8794Y3145D01*
Y2620D01*
X8719D01*
Y2488D01*
X7999D01*
X7940Y2476D01*
X7891Y2443D01*
X7733Y2285D01*
X7481D01*
Y1978D01*
Y1672D01*
X7906D01*
X7925Y1625D01*
X7811Y1511D01*
X6687D01*
X6651Y1548D01*
X6664Y1566D01*
X6699Y1651D01*
X6711Y1742D01*
X6699Y1833D01*
X6664Y1919D01*
X6608Y1992D01*
X6535Y2048D01*
X6450Y2083D01*
X6358Y2095D01*
X6267Y2083D01*
X6182Y2048D01*
X6109Y1992D01*
X6053Y1919D01*
X6017Y1833D01*
X6005Y1742D01*
X6017Y1651D01*
X6053Y1566D01*
X6109Y1493D01*
X6182Y1436D01*
X6220Y1421D01*
X6219Y1367D01*
X6153Y1339D01*
X6079Y1283D01*
X6065Y1265D01*
X6015Y1282D01*
Y1458D01*
X5238D01*
Y1458D01*
X4893D01*
Y1102D01*
X4843D01*
Y1052D01*
X4447D01*
Y760D01*
X4447Y746D01*
X4447D01*
Y710D01*
X4447D01*
Y0D01*
X0D01*
Y7874D01*
X19685D01*
Y0D01*
D02*
G37*
%LPC*%
G36*
X13755Y5869D02*
X12855D01*
Y4879D01*
X13152D01*
Y3546D01*
X12339Y2733D01*
X12316Y2743D01*
X12224Y2755D01*
X12133Y2743D01*
X12048Y2707D01*
X11975Y2651D01*
X11919Y2578D01*
X11883Y2493D01*
X11871Y2402D01*
X11883Y2310D01*
X11919Y2225D01*
X11975Y2152D01*
X12048Y2096D01*
X12133Y2061D01*
X12224Y2049D01*
X12316Y2061D01*
X12401Y2096D01*
X12474Y2152D01*
X12530Y2225D01*
X12565Y2310D01*
X12577Y2402D01*
X12565Y2493D01*
X12556Y2517D01*
X13413Y3374D01*
X13446Y3424D01*
X13458Y3482D01*
Y4879D01*
X13755D01*
Y5869D01*
D02*
G37*
G36*
X5452Y2480D02*
X5107D01*
Y2174D01*
X5452D01*
Y2480D01*
D02*
G37*
G36*
X5002Y2728D02*
X4479D01*
Y2481D01*
X5002D01*
Y2728D01*
D02*
G37*
G36*
X7381Y2285D02*
X7213D01*
Y2028D01*
X7381D01*
Y2285D01*
D02*
G37*
G36*
X4379Y2381D02*
X3857D01*
Y2134D01*
X4379D01*
Y2381D01*
D02*
G37*
G36*
X5002D02*
X4479D01*
Y2134D01*
X5002D01*
Y2381D01*
D02*
G37*
G36*
X14507Y2561D02*
X14466Y2556D01*
X14381Y2520D01*
X14307Y2464D01*
X14251Y2391D01*
X14216Y2306D01*
X14211Y2265D01*
X14507D01*
Y2561D01*
D02*
G37*
G36*
X14607D02*
Y2265D01*
X14904D01*
X14898Y2306D01*
X14863Y2391D01*
X14807Y2464D01*
X14734Y2520D01*
X14648Y2556D01*
X14607Y2561D01*
D02*
G37*
G36*
X7381Y2696D02*
X7085D01*
X7090Y2655D01*
X7125Y2570D01*
X7181Y2496D01*
X7255Y2440D01*
X7340Y2405D01*
X7381Y2400D01*
Y2696D01*
D02*
G37*
G36*
X6734Y2489D02*
X6389D01*
Y2183D01*
X6734D01*
Y2489D01*
D02*
G37*
G36*
X4379Y2728D02*
X3857D01*
Y2481D01*
X4379D01*
Y2728D01*
D02*
G37*
G36*
X7778Y2696D02*
X7481D01*
Y2400D01*
X7522Y2405D01*
X7608Y2440D01*
X7681Y2496D01*
X7737Y2570D01*
X7772Y2655D01*
X7778Y2696D01*
D02*
G37*
G36*
X3162Y541D02*
X2820D01*
Y198D01*
X2873Y205D01*
X2969Y245D01*
X3052Y309D01*
X3115Y391D01*
X3155Y487D01*
X3162Y541D01*
D02*
G37*
G36*
X10966Y836D02*
X10798D01*
Y579D01*
X10966D01*
Y836D01*
D02*
G37*
G36*
X535Y983D02*
X481Y976D01*
X385Y936D01*
X303Y872D01*
X239Y790D01*
X200Y694D01*
X193Y641D01*
X535D01*
Y983D01*
D02*
G37*
G36*
X977Y541D02*
X635D01*
Y198D01*
X688Y205D01*
X784Y245D01*
X867Y309D01*
X930Y391D01*
X970Y487D01*
X977Y541D01*
D02*
G37*
G36*
X4165Y986D02*
X3374D01*
Y195D01*
X4165D01*
Y986D01*
D02*
G37*
G36*
X535Y541D02*
X193D01*
X200Y487D01*
X239Y391D01*
X303Y309D01*
X385Y245D01*
X481Y205D01*
X535Y198D01*
Y541D01*
D02*
G37*
G36*
X2720D02*
X2378D01*
X2385Y487D01*
X2424Y391D01*
X2488Y309D01*
X2570Y245D01*
X2666Y205D01*
X2720Y198D01*
Y541D01*
D02*
G37*
G36*
X7381Y1928D02*
X7213D01*
Y1672D01*
X7381D01*
Y1928D01*
D02*
G37*
G36*
X14507Y2165D02*
X14211D01*
X14216Y2123D01*
X14251Y2038D01*
X14307Y1965D01*
X14381Y1909D01*
X14466Y1874D01*
X14507Y1868D01*
Y2165D01*
D02*
G37*
G36*
X14904D02*
X14607D01*
Y1868D01*
X14648Y1874D01*
X14734Y1909D01*
X14807Y1965D01*
X14863Y2038D01*
X14898Y2123D01*
X14904Y2165D01*
D02*
G37*
G36*
X4793Y1458D02*
X4447D01*
Y1152D01*
X4793D01*
Y1458D01*
D02*
G37*
G36*
X2720Y983D02*
X2666Y976D01*
X2570Y936D01*
X2488Y872D01*
X2424Y790D01*
X2385Y694D01*
X2378Y641D01*
X2720D01*
Y983D01*
D02*
G37*
G36*
X635D02*
Y641D01*
X977D01*
X970Y694D01*
X930Y790D01*
X867Y872D01*
X784Y936D01*
X688Y976D01*
X635Y983D01*
D02*
G37*
G36*
X2820D02*
Y641D01*
X3162D01*
X3155Y694D01*
X3115Y790D01*
X3052Y872D01*
X2969Y936D01*
X2873Y976D01*
X2820Y983D01*
D02*
G37*
G36*
X7381Y3092D02*
X7340Y3087D01*
X7255Y3052D01*
X7181Y2996D01*
X7125Y2923D01*
X7090Y2837D01*
X7085Y2796D01*
X7381D01*
Y3092D01*
D02*
G37*
G36*
X974Y7066D02*
X627D01*
X634Y7012D01*
X674Y6914D01*
X738Y6831D01*
X822Y6767D01*
X919Y6726D01*
X974Y6719D01*
Y7066D01*
D02*
G37*
G36*
X1420D02*
X1074D01*
Y6719D01*
X1128Y6726D01*
X1225Y6767D01*
X1309Y6831D01*
X1373Y6914D01*
X1413Y7012D01*
X1420Y7066D01*
D02*
G37*
G36*
X5068D02*
X4721D01*
X4728Y7012D01*
X4769Y6914D01*
X4833Y6831D01*
X4916Y6767D01*
X5014Y6726D01*
X5068Y6719D01*
Y7066D01*
D02*
G37*
G36*
X2008Y7520D02*
X1903Y7506D01*
X1806Y7466D01*
X1723Y7401D01*
X1658Y7318D01*
X1618Y7221D01*
X1604Y7116D01*
X1618Y7012D01*
X1658Y6914D01*
X1723Y6831D01*
X1806Y6767D01*
X1903Y6726D01*
X2008Y6713D01*
X2112Y6726D01*
X2210Y6767D01*
X2293Y6831D01*
X2357Y6914D01*
X2398Y7012D01*
X2411Y7116D01*
X2398Y7221D01*
X2357Y7318D01*
X2293Y7401D01*
X2210Y7466D01*
X2112Y7506D01*
X2008Y7520D01*
D02*
G37*
G36*
X13255Y6974D02*
X12855D01*
Y6529D01*
X13255D01*
Y6974D01*
D02*
G37*
G36*
X13755D02*
X13355D01*
Y6529D01*
X13755D01*
Y6974D01*
D02*
G37*
G36*
X15755Y7519D02*
X14855D01*
Y6529D01*
X15755D01*
Y7519D01*
D02*
G37*
G36*
X13755D02*
X13355D01*
Y7074D01*
X13755D01*
Y7519D01*
D02*
G37*
G36*
X974Y7513D02*
X919Y7506D01*
X822Y7466D01*
X738Y7401D01*
X674Y7318D01*
X634Y7221D01*
X627Y7166D01*
X974D01*
Y7513D01*
D02*
G37*
G36*
X1074D02*
Y7166D01*
X1420D01*
X1413Y7221D01*
X1373Y7318D01*
X1309Y7401D01*
X1225Y7466D01*
X1128Y7506D01*
X1074Y7513D01*
D02*
G37*
G36*
X13255Y7519D02*
X12855D01*
Y7074D01*
X13255D01*
Y7519D01*
D02*
G37*
G36*
X5515Y7066D02*
X5168D01*
Y6719D01*
X5223Y6726D01*
X5320Y6767D01*
X5403Y6831D01*
X5468Y6914D01*
X5508Y7012D01*
X5515Y7066D01*
D02*
G37*
G36*
X9163D02*
X8816D01*
X8823Y7012D01*
X8863Y6914D01*
X8927Y6831D01*
X9011Y6767D01*
X9108Y6726D01*
X9163Y6719D01*
Y7066D01*
D02*
G37*
G36*
X9609D02*
X9263D01*
Y6719D01*
X9317Y6726D01*
X9414Y6767D01*
X9498Y6831D01*
X9562Y6914D01*
X9602Y7012D01*
X9609Y7066D01*
D02*
G37*
G36*
X6013Y4982D02*
X5972Y4977D01*
X5886Y4942D01*
X5813Y4885D01*
X5757Y4812D01*
X5722Y4727D01*
X5717Y4686D01*
X6013D01*
Y4982D01*
D02*
G37*
G36*
X6113D02*
Y4686D01*
X6409D01*
X6404Y4727D01*
X6369Y4812D01*
X6313Y4885D01*
X6240Y4942D01*
X6154Y4977D01*
X6113Y4982D01*
D02*
G37*
G36*
X1330Y5563D02*
X540D01*
Y4772D01*
X1330D01*
Y5563D01*
D02*
G37*
G36*
X6409Y4586D02*
X6113D01*
Y4289D01*
X6154Y4295D01*
X6240Y4330D01*
X6313Y4386D01*
X6369Y4459D01*
X6404Y4544D01*
X6409Y4586D01*
D02*
G37*
G36*
X7481Y3092D02*
Y2796D01*
X7778D01*
X7772Y2837D01*
X7737Y2923D01*
X7681Y2996D01*
X7608Y3052D01*
X7522Y3087D01*
X7481Y3092D01*
D02*
G37*
G36*
X935Y4566D02*
X832Y4552D01*
X736Y4513D01*
X653Y4449D01*
X590Y4367D01*
X550Y4271D01*
X536Y4167D01*
X550Y4064D01*
X590Y3968D01*
X653Y3885D01*
X736Y3822D01*
X832Y3782D01*
X935Y3769D01*
X1038Y3782D01*
X1134Y3822D01*
X1217Y3885D01*
X1280Y3968D01*
X1320Y4064D01*
X1334Y4167D01*
X1320Y4271D01*
X1280Y4367D01*
X1217Y4449D01*
X1134Y4513D01*
X1038Y4552D01*
X935Y4566D01*
D02*
G37*
G36*
X6013Y4586D02*
X5717D01*
X5722Y4544D01*
X5757Y4459D01*
X5813Y4386D01*
X5886Y4330D01*
X5972Y4295D01*
X6013Y4289D01*
Y4586D01*
D02*
G37*
G36*
X3033Y6072D02*
X2737D01*
Y5776D01*
X2778Y5781D01*
X2864Y5816D01*
X2937Y5872D01*
X2993Y5946D01*
X3028Y6031D01*
X3033Y6072D01*
D02*
G37*
G36*
X2637Y6468D02*
X2596Y6463D01*
X2510Y6428D01*
X2437Y6372D01*
X2381Y6299D01*
X2346Y6213D01*
X2341Y6172D01*
X2637D01*
Y6468D01*
D02*
G37*
G36*
X2737D02*
Y6172D01*
X3033D01*
X3028Y6213D01*
X2993Y6299D01*
X2937Y6372D01*
X2864Y6428D01*
X2778Y6463D01*
X2737Y6468D01*
D02*
G37*
G36*
X2637Y6072D02*
X2341D01*
X2346Y6031D01*
X2381Y5946D01*
X2437Y5872D01*
X2510Y5816D01*
X2596Y5781D01*
X2637Y5776D01*
Y6072D01*
D02*
G37*
G36*
X5671Y5206D02*
X5365D01*
Y4861D01*
X5671D01*
Y5206D01*
D02*
G37*
G36*
X14223Y6091D02*
X14132Y6079D01*
X14047Y6044D01*
X13974Y5988D01*
X13917Y5915D01*
X13882Y5830D01*
X13870Y5738D01*
X13882Y5647D01*
X13917Y5562D01*
X13974Y5489D01*
X14047Y5433D01*
X14132Y5397D01*
X14223Y5385D01*
X14315Y5397D01*
X14400Y5433D01*
X14473Y5489D01*
X14524Y5556D01*
X14855D01*
Y4879D01*
X15755D01*
Y5869D01*
X14855D01*
Y5862D01*
X14551D01*
X14529Y5915D01*
X14473Y5988D01*
X14400Y6044D01*
X14315Y6079D01*
X14223Y6091D01*
D02*
G37*
G36*
X5671Y5651D02*
X5365D01*
Y5306D01*
X5671D01*
Y5651D01*
D02*
G37*
%LPD*%
D10*
X4843Y354D02*
D03*
Y1102D02*
D03*
X5620Y354D02*
D03*
Y1102D02*
D03*
X9114Y2264D02*
D03*
Y1516D02*
D03*
X6339Y2539D02*
D03*
Y3287D02*
D03*
X5502Y2530D02*
D03*
Y3278D02*
D03*
D11*
X7431Y1978D02*
D03*
X7805D02*
D03*
X8179D02*
D03*
X7431Y915D02*
D03*
X8179D02*
D03*
X10748Y886D02*
D03*
X10374D02*
D03*
X10000D02*
D03*
X10748Y1949D02*
D03*
X10000D02*
D03*
D12*
X13305Y7024D02*
D03*
Y5374D02*
D03*
X15305Y7024D02*
D03*
Y5374D02*
D03*
D13*
X5315Y5256D02*
D03*
X4567D02*
D03*
D14*
X4429Y2431D02*
D03*
Y3337D02*
D03*
Y4242D02*
D03*
D15*
X2146Y3337D02*
D03*
D16*
X6289Y1693D02*
X6624Y1358D01*
X13327Y346D02*
Y423D01*
Y346D02*
X13367Y306D01*
X13238Y177D02*
X13367Y306D01*
X6561Y177D02*
X13238D01*
X7999Y2335D02*
X9043D01*
X9114Y2264D01*
X8947Y2431D02*
X9043Y2335D01*
X7490Y3632D02*
X8524D01*
X8947Y3209D01*
Y2431D02*
Y3209D01*
X9665Y4055D02*
X9892Y3829D01*
X7106Y4055D02*
X9665D01*
X6339Y3287D02*
X7106Y4055D01*
X7372Y5659D02*
X7392Y5679D01*
X10630D01*
X11348Y4961D01*
X12224Y2402D02*
X13305Y3482D01*
X11348Y1683D02*
Y4961D01*
X10994Y1329D02*
X11348Y1683D01*
X10177Y1329D02*
X10994D01*
X10000Y1152D02*
X10177Y1329D01*
X10000Y886D02*
Y1152D01*
X6851Y581D02*
X6873Y559D01*
X7611D01*
X7968Y915D01*
X8179D01*
X7313Y1034D02*
X7431Y915D01*
X6329Y1034D02*
X7313D01*
X6624Y1358D02*
X7874D01*
X8179Y1663D01*
Y1978D01*
X5635Y1102D02*
X6561Y177D01*
X10329Y1831D02*
X10568Y1592D01*
X10000Y1831D02*
X10329D01*
X10928Y1592D02*
X11016Y1680D01*
X10568Y1592D02*
X10928D01*
X10000Y1831D02*
Y1949D01*
X9892Y3829D02*
X11016Y2704D01*
Y1680D02*
Y2704D01*
X8859Y581D02*
X8997Y443D01*
X10148D01*
X10374Y669D01*
Y886D01*
X13305Y3482D02*
Y5374D01*
X14223Y5738D02*
X14253Y5709D01*
X14970D01*
X15305Y5374D01*
X9970Y856D02*
X10000Y886D01*
X11801Y6191D02*
X11811Y6201D01*
X6260Y6191D02*
X11801D01*
X3656Y6181D02*
X4656D01*
X1523Y4048D02*
X3656Y6181D01*
X1523Y3756D02*
Y4048D01*
X935Y3167D02*
X1523Y3756D01*
X5620Y1102D02*
X5635D01*
X4429Y3337D02*
X6289D01*
X5620Y354D02*
X5620Y354D01*
X4843Y354D02*
X5620D01*
X8179Y915D02*
X8780Y1516D01*
X9114D01*
X9567D02*
X10000Y1949D01*
X9114Y1516D02*
X9567D01*
X9156Y2306D02*
X10391D01*
X7805Y2141D02*
X7999Y2335D01*
X7805Y1978D02*
Y2141D01*
X10391Y2306D02*
X10748Y1949D01*
X1585Y591D02*
Y1398D01*
X4429Y4242D01*
X6102Y6807D02*
Y7116D01*
X4567Y5271D02*
X6102Y6807D01*
X4567Y5256D02*
Y5271D01*
Y4380D02*
Y5256D01*
X4429Y4242D02*
X4567Y4380D01*
X10669Y7628D02*
X11181Y7116D01*
X7598Y7628D02*
X10669D01*
X7087Y7116D02*
X7598Y7628D01*
X6555Y7648D02*
X7087Y7116D01*
X3524Y7648D02*
X6555D01*
X2992Y7116D02*
X3524Y7648D01*
X6339Y1742D02*
X6358D01*
X6289Y1693D02*
X6339Y1742D01*
D17*
X935Y5167D02*
D03*
D18*
Y4167D02*
D03*
Y3167D02*
D03*
X2770Y591D02*
D03*
X585D02*
D03*
D19*
X3770D02*
D03*
X1585D02*
D03*
D20*
X9213Y7116D02*
D03*
X10197D02*
D03*
X11181D02*
D03*
X5118D02*
D03*
X6102D02*
D03*
X7087D02*
D03*
X1024D02*
D03*
X2008D02*
D03*
X2992D02*
D03*
D21*
X7431Y2746D02*
D03*
X2687Y6122D02*
D03*
X6063Y4636D02*
D03*
X14557Y2215D02*
D03*
X13327Y423D02*
D03*
X7490Y3632D02*
D03*
X7372Y5659D02*
D03*
X12224Y2402D02*
D03*
X6851Y581D02*
D03*
X6329Y1034D02*
D03*
X8859Y581D02*
D03*
X14223Y5738D02*
D03*
X9892Y3829D02*
D03*
X11811Y6201D02*
D03*
X6260Y6191D02*
D03*
X4656Y6181D02*
D03*
X6358Y1742D02*
D03*
M02*
