G04 Layer_Color=65535*
%FSLAX24Y24*%
%MOIN*%
G70*
G01*
G75*
%ADD16C,0.0100*%
%ADD25C,0.0098*%
%ADD26C,0.0079*%
%ADD27C,0.0050*%
%ADD28C,0.0059*%
D16*
X15848Y6547D02*
G03*
X15828Y5948I257J-308D01*
G01*
X8533Y1280D02*
Y1614D01*
X7096D02*
X8533D01*
X7096Y1280D02*
Y1614D01*
Y1280D02*
X8533D01*
X9646Y1250D02*
Y1585D01*
Y1250D02*
X11083D01*
Y1585D01*
X9646D02*
X11083D01*
X13905Y5124D02*
X14715D01*
X13905Y7174D02*
X14705D01*
X15855Y5174D02*
Y5924D01*
Y6574D02*
Y7199D01*
X12755Y5174D02*
Y7174D01*
X14012Y4506D02*
X13912Y4606D01*
X13712D01*
X13612Y4506D01*
Y4106D01*
X13712Y4006D01*
X13912D01*
X14012Y4106D01*
X14212Y4606D02*
Y4006D01*
X14612D01*
X14812Y4606D02*
Y4006D01*
Y4206D01*
X15212Y4606D01*
X14912Y4306D01*
X15212Y4006D01*
D25*
X4478Y2018D02*
G03*
X4478Y2018I-49J0D01*
G01*
D26*
X5364Y1476D02*
X5876D01*
X5246Y3652D02*
X5758D01*
X4193Y5000D02*
Y5512D01*
X-65Y2667D02*
Y5667D01*
Y2667D02*
X435D01*
X-65Y5667D02*
X435D01*
Y2667D02*
Y5667D01*
X-1398Y5334D02*
X-65D01*
X-1565Y5167D02*
X-1398Y5334D01*
X-1565Y5167D02*
X-1398Y5001D01*
X-65D01*
X-1398Y4334D02*
X-65D01*
X-1565Y4167D02*
X-1398Y4334D01*
X-1565Y4167D02*
X-1398Y4001D01*
X-65D01*
X-1398Y3334D02*
X-65D01*
X-1565Y3167D02*
X-1398Y3334D01*
X-1565Y3167D02*
X-1398Y3001D01*
X-65D01*
X2270Y91D02*
Y1091D01*
X4270D01*
Y91D02*
Y1091D01*
X2270Y91D02*
X4270D01*
X3839Y2018D02*
Y4656D01*
X2736Y2018D02*
Y4656D01*
Y2018D02*
X3839D01*
X2736Y4656D02*
X3839D01*
X85Y91D02*
Y1091D01*
X2085D01*
Y91D02*
Y1091D01*
X85Y91D02*
X2085D01*
D27*
X8248Y5856D02*
X12185D01*
Y7325D01*
X8748Y7825D02*
X11685D01*
X8248Y7325D02*
X8748Y7825D01*
X8248Y5856D02*
Y7325D01*
X11685Y7825D02*
X12185Y7325D01*
X4154Y5856D02*
X8091D01*
Y7325D01*
X4654Y7825D02*
X7591D01*
X4154Y7325D02*
X4654Y7825D01*
X4154Y5856D02*
Y7325D01*
X7591Y7825D02*
X8091Y7325D01*
X59Y5856D02*
X3996D01*
Y7325D01*
X559Y7825D02*
X3496D01*
X59Y7325D02*
X559Y7825D01*
X59Y5856D02*
Y7325D01*
X3496Y7825D02*
X3996Y7325D01*
D28*
X3091Y3002D02*
X3419D01*
X3484Y3068D01*
Y3199D01*
X3419Y3264D01*
X3091D01*
X3484Y3658D02*
Y3396D01*
X3222Y3658D01*
X3156D01*
X3091Y3592D01*
Y3461D01*
X3156Y3396D01*
X8780Y2717D02*
Y3110D01*
X8976D01*
X9042Y3045D01*
Y2913D01*
X8976Y2848D01*
X8780D01*
X8911D02*
X9042Y2717D01*
X9435Y3110D02*
X9304Y3045D01*
X9173Y2913D01*
Y2782D01*
X9239Y2717D01*
X9370D01*
X9435Y2782D01*
Y2848D01*
X9370Y2913D01*
X9173D01*
X4616Y1476D02*
Y1870D01*
X4813D01*
X4879Y1804D01*
Y1673D01*
X4813Y1608D01*
X4616D01*
X4747D02*
X4879Y1476D01*
X5010D02*
X5141D01*
X5075D01*
Y1870D01*
X5010Y1804D01*
X226Y2087D02*
Y2480D01*
X423D01*
X489Y2415D01*
Y2283D01*
X423Y2218D01*
X226D01*
X620Y2480D02*
Y2087D01*
X751Y2218D01*
X882Y2087D01*
Y2480D01*
X1014Y2087D02*
Y2480D01*
X1145Y2349D01*
X1276Y2480D01*
Y2087D01*
X2972Y1673D02*
X2841D01*
X2776Y1608D01*
Y1345D01*
X2841Y1280D01*
X2972D01*
X3038Y1345D01*
Y1608D01*
X2972Y1673D01*
X3169D02*
Y1345D01*
X3235Y1280D01*
X3366D01*
X3432Y1345D01*
Y1673D01*
X3563D02*
X3825D01*
X3694D01*
Y1280D01*
X768Y1663D02*
X899D01*
X833D01*
Y1270D01*
X768D01*
X899D01*
X1096D02*
Y1663D01*
X1358Y1270D01*
Y1663D01*
X7874Y2575D02*
Y2313D01*
Y2444D01*
X7940Y2510D01*
X8005Y2575D01*
X8071D01*
X8268D02*
X8530Y2313D01*
X8399Y2444D01*
X8530Y2575D01*
X8268Y2313D01*
X11375Y1096D02*
Y1030D01*
X11309D01*
X11440D01*
X11375D01*
Y833D01*
X11440Y768D01*
X11637Y1030D02*
X11899Y768D01*
X11768Y899D01*
X11899Y1030D01*
X11637Y768D01*
X6014Y551D02*
Y157D01*
X6211D01*
X6276Y223D01*
Y485D01*
X6211Y551D01*
X6014D01*
X6407Y157D02*
X6539D01*
X6473D01*
Y551D01*
X6407Y485D01*
X6286Y4088D02*
X6220Y4153D01*
X6089D01*
X6024Y4088D01*
Y3825D01*
X6089Y3760D01*
X6220D01*
X6286Y3825D01*
X6417Y4088D02*
X6483Y4153D01*
X6614D01*
X6680Y4088D01*
Y4022D01*
X6614Y3957D01*
X6548D01*
X6614D01*
X6680Y3891D01*
Y3825D01*
X6614Y3760D01*
X6483D01*
X6417Y3825D01*
X5410Y4176D02*
X5344Y4242D01*
X5213D01*
X5148Y4176D01*
Y3914D01*
X5213Y3848D01*
X5344D01*
X5410Y3914D01*
X5804Y3848D02*
X5541D01*
X5804Y4111D01*
Y4176D01*
X5738Y4242D01*
X5607D01*
X5541Y4176D01*
X6099Y5397D02*
X6033Y5462D01*
X5902D01*
X5837Y5397D01*
Y5134D01*
X5902Y5069D01*
X6033D01*
X6099Y5134D01*
X6230Y5069D02*
X6361D01*
X6296D01*
Y5462D01*
X6230Y5397D01*
M02*
