G04 Layer_Physical_Order=2*
G04 Layer_Color=16711680*
%FSLAX24Y24*%
%MOIN*%
G70*
G01*
G75*
%ADD10R,0.0591X0.0512*%
%ADD13R,0.0512X0.0591*%
%ADD16C,0.0100*%
%ADD17R,0.0591X0.0591*%
%ADD18C,0.0591*%
%ADD19R,0.0591X0.0591*%
%ADD20C,0.0600*%
%ADD21C,0.0500*%
%ADD22R,0.1339X0.0984*%
%ADD23O,0.0276X0.1024*%
%ADD24R,0.1181X0.0591*%
G36*
X12707Y2411D02*
Y1768D01*
X12689Y1756D01*
X12636Y1677D01*
X12636Y1675D01*
X12585D01*
X12584Y1677D01*
X12532Y1756D01*
X12453Y1809D01*
X12360Y1827D01*
X12267Y1809D01*
X12189Y1756D01*
X12136Y1677D01*
X12136Y1675D01*
X12085D01*
X12084Y1677D01*
X12032Y1756D01*
X11953Y1809D01*
X11860Y1827D01*
X11767Y1809D01*
X11689Y1756D01*
X11636Y1677D01*
X11636Y1675D01*
X11585D01*
X11584Y1677D01*
X11532Y1756D01*
X11453Y1809D01*
X11360Y1827D01*
X11267Y1809D01*
X11189Y1756D01*
X11136Y1677D01*
X11136Y1675D01*
X11085D01*
X11084Y1677D01*
X11032Y1756D01*
X10953Y1809D01*
X10860Y1827D01*
X10767Y1809D01*
X10689Y1756D01*
X10636Y1677D01*
X10636Y1675D01*
X10585D01*
X10584Y1677D01*
X10532Y1756D01*
X10453Y1809D01*
X10360Y1827D01*
X10351Y1825D01*
X10326Y1871D01*
X10703Y2249D01*
X11909D01*
X11919Y2225D01*
X11975Y2152D01*
X12048Y2096D01*
X12133Y2061D01*
X12224Y2049D01*
X12316Y2061D01*
X12401Y2096D01*
X12474Y2152D01*
X12530Y2225D01*
X12565Y2310D01*
X12577Y2402D01*
X12567Y2481D01*
X12603Y2504D01*
X12612Y2507D01*
X12707Y2411D01*
D02*
G37*
G36*
X19685Y0D02*
X8176D01*
X8160Y50D01*
X8189Y69D01*
X8468Y349D01*
X8502Y398D01*
X8550Y404D01*
X8554Y403D01*
X8609Y331D01*
X8682Y275D01*
X8767Y240D01*
X8859Y228D01*
X8950Y240D01*
X9035Y275D01*
X9108Y331D01*
X9164Y404D01*
X9200Y489D01*
X9212Y581D01*
X9210Y596D01*
X9252Y623D01*
X9267Y613D01*
X9360Y594D01*
X9453Y613D01*
X9532Y665D01*
X9584Y744D01*
X9585Y746D01*
X9636D01*
X9636Y744D01*
X9689Y665D01*
X9767Y613D01*
X9860Y594D01*
X9953Y613D01*
X10032Y665D01*
X10084Y744D01*
X10085Y746D01*
X10136D01*
X10136Y744D01*
X10189Y665D01*
X10267Y613D01*
X10310Y604D01*
Y1211D01*
X10410D01*
Y604D01*
X10453Y613D01*
X10532Y665D01*
X10584Y744D01*
X10585Y746D01*
X10636D01*
X10636Y744D01*
X10689Y665D01*
X10767Y613D01*
X10860Y594D01*
X10953Y613D01*
X11032Y665D01*
X11084Y744D01*
X11085Y746D01*
X11136D01*
X11136Y744D01*
X11189Y665D01*
X11267Y613D01*
X11360Y594D01*
X11453Y613D01*
X11532Y665D01*
X11584Y744D01*
X11585Y746D01*
X11636D01*
X11636Y744D01*
X11689Y665D01*
X11767Y613D01*
X11860Y594D01*
X11953Y613D01*
X12032Y665D01*
X12084Y744D01*
X12085Y746D01*
X12136D01*
X12136Y744D01*
X12189Y665D01*
X12267Y613D01*
X12360Y594D01*
X12453Y613D01*
X12532Y665D01*
X12584Y744D01*
X12585Y746D01*
X12636D01*
X12636Y744D01*
X12689Y665D01*
X12767Y613D01*
X12860Y594D01*
X12953Y613D01*
X12981Y631D01*
X13018Y602D01*
X13020Y597D01*
X12986Y515D01*
X12974Y423D01*
X12986Y332D01*
X13021Y247D01*
X13077Y174D01*
X13150Y117D01*
X13235Y82D01*
X13327Y70D01*
X13418Y82D01*
X13503Y117D01*
X13576Y174D01*
X13633Y247D01*
X13668Y332D01*
X13680Y423D01*
X13668Y515D01*
X13633Y600D01*
X13576Y673D01*
X13550Y693D01*
X13584Y744D01*
X13585Y746D01*
X13636D01*
X13636Y744D01*
X13689Y665D01*
X13767Y613D01*
X13860Y594D01*
X13953Y613D01*
X14032Y665D01*
X14084Y744D01*
X14103Y837D01*
Y1087D01*
X16760D01*
Y845D01*
X18141D01*
Y1635D01*
X18179Y1665D01*
X18212Y1687D01*
X18299Y1775D01*
X18333Y1824D01*
X18333Y1828D01*
X18356Y1851D01*
X18389Y1900D01*
X18401Y1959D01*
Y3750D01*
X18389Y3809D01*
X18356Y3858D01*
X17500Y4714D01*
X17450Y4748D01*
X17392Y4759D01*
X14103D01*
Y5207D01*
X14084Y5299D01*
X14051Y5350D01*
X14108Y5407D01*
X14132Y5397D01*
X14223Y5385D01*
X14315Y5397D01*
X14400Y5433D01*
X14473Y5489D01*
X14529Y5562D01*
X14564Y5647D01*
X14576Y5738D01*
X14564Y5830D01*
X14529Y5915D01*
X14473Y5988D01*
X14400Y6044D01*
X14315Y6079D01*
X14223Y6091D01*
X14132Y6079D01*
X14047Y6044D01*
X13974Y5988D01*
X13917Y5915D01*
X13882Y5830D01*
X13870Y5738D01*
X13882Y5647D01*
X13892Y5624D01*
X13752Y5484D01*
X13719Y5434D01*
X13711Y5393D01*
X13689Y5378D01*
X13636Y5299D01*
X13636Y5297D01*
X13585D01*
X13584Y5299D01*
X13532Y5378D01*
X13453Y5431D01*
X13410Y5439D01*
Y4833D01*
Y4226D01*
X13419Y4228D01*
X13444Y4182D01*
X13244Y3982D01*
X10207D01*
X10197Y4005D01*
X10141Y4078D01*
X10068Y4134D01*
X10045Y4144D01*
Y4307D01*
X10084Y4366D01*
X10085Y4368D01*
X10136D01*
X10136Y4366D01*
X10189Y4287D01*
X10267Y4235D01*
X10360Y4216D01*
X10453Y4235D01*
X10532Y4287D01*
X10584Y4366D01*
X10585Y4368D01*
X10636D01*
X10636Y4366D01*
X10689Y4287D01*
X10767Y4235D01*
X10860Y4216D01*
X10953Y4235D01*
X11032Y4287D01*
X11084Y4366D01*
X11085Y4368D01*
X11136D01*
X11136Y4366D01*
X11189Y4287D01*
X11267Y4235D01*
X11360Y4216D01*
X11453Y4235D01*
X11532Y4287D01*
X11584Y4366D01*
X11585Y4368D01*
X11636D01*
X11636Y4366D01*
X11689Y4287D01*
X11767Y4235D01*
X11860Y4216D01*
X11953Y4235D01*
X12032Y4287D01*
X12084Y4366D01*
X12085Y4368D01*
X12136D01*
X12136Y4366D01*
X12189Y4287D01*
X12267Y4235D01*
X12360Y4216D01*
X12453Y4235D01*
X12532Y4287D01*
X12584Y4366D01*
X12585Y4368D01*
X12636D01*
X12636Y4366D01*
X12689Y4287D01*
X12767Y4235D01*
X12860Y4216D01*
X12953Y4235D01*
X13032Y4287D01*
X13084Y4366D01*
X13085Y4368D01*
X13136D01*
X13136Y4366D01*
X13189Y4287D01*
X13267Y4235D01*
X13310Y4226D01*
Y4833D01*
Y5439D01*
X13267Y5431D01*
X13189Y5378D01*
X13136Y5299D01*
X13136Y5297D01*
X13085D01*
X13084Y5299D01*
X13032Y5378D01*
X12953Y5431D01*
X12860Y5449D01*
X12767Y5431D01*
X12689Y5378D01*
X12636Y5299D01*
X12636Y5297D01*
X12585D01*
X12584Y5299D01*
X12532Y5378D01*
X12513Y5390D01*
Y5652D01*
X12502Y5710D01*
X12468Y5760D01*
X12142Y6086D01*
X12152Y6109D01*
X12164Y6201D01*
X12152Y6292D01*
X12117Y6377D01*
X12061Y6450D01*
X11988Y6507D01*
X11902Y6542D01*
X11811Y6554D01*
X11720Y6542D01*
X11635Y6507D01*
X11561Y6450D01*
X11505Y6377D01*
X11470Y6292D01*
X11458Y6201D01*
X11470Y6109D01*
X11505Y6024D01*
X11561Y5951D01*
X11635Y5895D01*
X11720Y5860D01*
X11811Y5848D01*
X11902Y5860D01*
X11926Y5870D01*
X12207Y5588D01*
Y5390D01*
X12189Y5378D01*
X12136Y5299D01*
X12136Y5297D01*
X12085D01*
X12084Y5299D01*
X12032Y5378D01*
X11953Y5431D01*
X11860Y5449D01*
X11767Y5431D01*
X11689Y5378D01*
X11636Y5299D01*
X11636Y5297D01*
X11585D01*
X11584Y5299D01*
X11532Y5378D01*
X11453Y5431D01*
X11360Y5449D01*
X11267Y5431D01*
X11189Y5378D01*
X11136Y5299D01*
X11136Y5297D01*
X11085D01*
X11084Y5299D01*
X11032Y5378D01*
X10953Y5431D01*
X10860Y5449D01*
X10767Y5431D01*
X10689Y5378D01*
X10636Y5299D01*
X10636Y5297D01*
X10585D01*
X10584Y5299D01*
X10532Y5378D01*
X10453Y5431D01*
X10360Y5449D01*
X10267Y5431D01*
X10189Y5378D01*
X10136Y5299D01*
X10136Y5297D01*
X10085D01*
X10084Y5299D01*
X10032Y5378D01*
X9953Y5431D01*
X9860Y5449D01*
X9767Y5431D01*
X9689Y5378D01*
X9636Y5299D01*
X9636Y5297D01*
X9585D01*
X9584Y5299D01*
X9532Y5378D01*
X9453Y5431D01*
X9410Y5439D01*
Y4833D01*
Y4226D01*
X9453Y4235D01*
X9532Y4287D01*
X9584Y4366D01*
X9585Y4368D01*
X9636D01*
X9636Y4366D01*
X9689Y4287D01*
X9739Y4254D01*
Y4144D01*
X9715Y4134D01*
X9642Y4078D01*
X9586Y4005D01*
X9551Y3920D01*
X9539Y3829D01*
X9551Y3737D01*
X9586Y3652D01*
X9642Y3579D01*
X9715Y3523D01*
X9776Y3498D01*
X9766Y3448D01*
X9150D01*
X9013Y3585D01*
Y4275D01*
X9032Y4287D01*
X9084Y4366D01*
X9085Y4368D01*
X9136D01*
X9136Y4366D01*
X9189Y4287D01*
X9267Y4235D01*
X9310Y4226D01*
Y4833D01*
Y5439D01*
X9267Y5431D01*
X9189Y5378D01*
X9136Y5299D01*
X9136Y5297D01*
X9085D01*
X9084Y5299D01*
X9032Y5378D01*
X8953Y5431D01*
X8860Y5449D01*
X8767Y5431D01*
X8689Y5378D01*
X8636Y5299D01*
X8636Y5297D01*
X8585D01*
X8584Y5299D01*
X8532Y5378D01*
X8453Y5431D01*
X8360Y5449D01*
X8267Y5431D01*
X8189Y5378D01*
X8136Y5299D01*
X8136Y5297D01*
X8085D01*
X8084Y5299D01*
X8032Y5378D01*
X7953Y5431D01*
X7860Y5449D01*
X7767Y5431D01*
X7689Y5378D01*
X7636Y5299D01*
X7636Y5297D01*
X7585D01*
X7584Y5299D01*
X7548Y5353D01*
X7549Y5354D01*
X7622Y5410D01*
X7678Y5483D01*
X7713Y5568D01*
X7725Y5659D01*
X7713Y5751D01*
X7678Y5836D01*
X7622Y5909D01*
X7549Y5965D01*
X7463Y6000D01*
X7372Y6012D01*
X7281Y6000D01*
X7280Y6000D01*
X7236Y6036D01*
X7240Y6054D01*
Y6747D01*
X7288Y6767D01*
X7372Y6831D01*
X7436Y6914D01*
X7476Y7012D01*
X7490Y7116D01*
X7476Y7221D01*
X7436Y7318D01*
X7372Y7401D01*
X7328Y7435D01*
X7345Y7485D01*
X8954D01*
X8971Y7435D01*
X8927Y7401D01*
X8863Y7318D01*
X8823Y7221D01*
X8816Y7166D01*
X9609D01*
X9602Y7221D01*
X9562Y7318D01*
X9498Y7401D01*
X9454Y7435D01*
X9471Y7485D01*
X9612D01*
X9827Y7269D01*
X9807Y7221D01*
X9793Y7116D01*
X9807Y7012D01*
X9847Y6914D01*
X9912Y6831D01*
X9995Y6767D01*
X10092Y6726D01*
X10197Y6713D01*
X10301Y6726D01*
X10399Y6767D01*
X10482Y6831D01*
X10546Y6914D01*
X10587Y7012D01*
X10600Y7116D01*
X10587Y7221D01*
X10546Y7318D01*
X10482Y7401D01*
X10399Y7466D01*
X10301Y7506D01*
X10197Y7520D01*
X10092Y7506D01*
X10044Y7486D01*
X9783Y7746D01*
X9734Y7779D01*
X9675Y7791D01*
X6624D01*
X6565Y7779D01*
X6516Y7746D01*
X6256Y7486D01*
X6207Y7506D01*
X6102Y7520D01*
X5998Y7506D01*
X5949Y7486D01*
X5679Y7756D01*
X5629Y7789D01*
X5571Y7801D01*
X2539D01*
X2481Y7789D01*
X2431Y7756D01*
X2161Y7486D01*
X2112Y7506D01*
X2008Y7520D01*
X1903Y7506D01*
X1806Y7466D01*
X1723Y7401D01*
X1658Y7318D01*
X1618Y7221D01*
X1604Y7116D01*
X1618Y7012D01*
X1658Y6914D01*
X1723Y6831D01*
X1806Y6767D01*
X1903Y6726D01*
X2008Y6713D01*
X2112Y6726D01*
X2210Y6767D01*
X2293Y6831D01*
X2357Y6914D01*
X2398Y7012D01*
X2411Y7116D01*
X2398Y7221D01*
X2377Y7269D01*
X2603Y7495D01*
X2746D01*
X2763Y7445D01*
X2707Y7401D01*
X2643Y7318D01*
X2602Y7221D01*
X2589Y7116D01*
X2602Y7012D01*
X2643Y6914D01*
X2707Y6831D01*
X2790Y6767D01*
X2888Y6726D01*
X2992Y6713D01*
X3097Y6726D01*
X3194Y6767D01*
X3277Y6831D01*
X3342Y6914D01*
X3382Y7012D01*
X3396Y7116D01*
X3382Y7221D01*
X3342Y7318D01*
X3277Y7401D01*
X3221Y7445D01*
X3238Y7495D01*
X4872D01*
X4889Y7445D01*
X4833Y7401D01*
X4769Y7318D01*
X4728Y7221D01*
X4721Y7166D01*
X5515D01*
X5508Y7221D01*
X5468Y7318D01*
X5403Y7401D01*
X5347Y7445D01*
X5364Y7495D01*
X5508D01*
X5733Y7269D01*
X5713Y7221D01*
X5699Y7116D01*
X5713Y7012D01*
X5753Y6914D01*
X5817Y6831D01*
X5901Y6767D01*
X5998Y6726D01*
X6102Y6713D01*
X6207Y6726D01*
X6304Y6767D01*
X6388Y6831D01*
X6452Y6914D01*
X6492Y7012D01*
X6506Y7116D01*
X6492Y7221D01*
X6472Y7269D01*
X6687Y7485D01*
X6828D01*
X6845Y7435D01*
X6801Y7401D01*
X6737Y7318D01*
X6697Y7221D01*
X6683Y7116D01*
X6697Y7012D01*
X6737Y6914D01*
X6801Y6831D01*
X6885Y6767D01*
X6934Y6747D01*
Y6118D01*
X6864Y6048D01*
X6831Y5998D01*
X6819Y5940D01*
Y4150D01*
X6831Y4091D01*
X6864Y4042D01*
X7159Y3747D01*
X7149Y3723D01*
X7137Y3632D01*
X7149Y3541D01*
X7184Y3455D01*
X7241Y3382D01*
X7279Y3353D01*
X7262Y3303D01*
X5130D01*
Y3492D01*
X5130Y3506D01*
Y3542D01*
X5130Y3556D01*
Y3848D01*
X4734D01*
X4339D01*
Y3556D01*
X4339Y3542D01*
Y3506D01*
X4339Y3492D01*
Y3303D01*
X4244D01*
Y3472D01*
X4244Y3486D01*
Y3522D01*
X4244Y3536D01*
Y4234D01*
X3453D01*
Y4031D01*
X3259D01*
Y4618D01*
X1721D01*
Y4320D01*
X1300D01*
X1280Y4367D01*
X1217Y4449D01*
X1134Y4513D01*
X1038Y4552D01*
X935Y4566D01*
X832Y4552D01*
X736Y4513D01*
X653Y4449D01*
X590Y4367D01*
X550Y4271D01*
X536Y4167D01*
X550Y4064D01*
X590Y3968D01*
X653Y3885D01*
X736Y3822D01*
X832Y3782D01*
X935Y3769D01*
X1038Y3782D01*
X1134Y3822D01*
X1217Y3885D01*
X1280Y3968D01*
X1300Y4014D01*
X1721D01*
Y3433D01*
X3259D01*
Y3725D01*
X3453D01*
Y3536D01*
X3453Y3522D01*
Y3486D01*
X3453Y3472D01*
Y2774D01*
X3686D01*
Y2639D01*
X3443D01*
Y1941D01*
X3443Y1928D01*
Y1891D01*
X3443Y1878D01*
Y1585D01*
X4234D01*
Y1878D01*
X4234Y1891D01*
Y1928D01*
X4234Y1941D01*
Y2639D01*
X3992D01*
Y2774D01*
X4244D01*
Y2997D01*
X4339D01*
Y2794D01*
X5130D01*
Y2997D01*
X7119D01*
X7144Y2947D01*
X7125Y2923D01*
X7090Y2837D01*
X7085Y2796D01*
X7778D01*
X7772Y2837D01*
X7737Y2923D01*
X7718Y2947D01*
X7743Y2997D01*
X8421D01*
X8642Y2776D01*
X8691Y2743D01*
X8750Y2731D01*
X11997D01*
X12014Y2681D01*
X11975Y2651D01*
X11919Y2578D01*
X11909Y2555D01*
X10640D01*
X10581Y2543D01*
X10532Y2510D01*
X9847Y1824D01*
X9767Y1809D01*
X9689Y1756D01*
X9636Y1677D01*
X9636Y1675D01*
X9585D01*
X9584Y1677D01*
X9532Y1756D01*
X9453Y1809D01*
X9360Y1827D01*
X9267Y1809D01*
X9189Y1756D01*
X9136Y1677D01*
X9136Y1675D01*
X9085D01*
X9084Y1677D01*
X9032Y1756D01*
X8953Y1809D01*
X8860Y1827D01*
X8767Y1809D01*
X8689Y1756D01*
X8636Y1677D01*
X8636Y1675D01*
X8585D01*
X8584Y1677D01*
X8532Y1756D01*
X8453Y1809D01*
X8360Y1827D01*
X8267Y1809D01*
X8189Y1756D01*
X8136Y1677D01*
X8136Y1675D01*
X8085D01*
X8084Y1677D01*
X8032Y1756D01*
X7953Y1809D01*
X7860Y1827D01*
X7767Y1809D01*
X7689Y1756D01*
X7636Y1677D01*
X7636Y1675D01*
X7585D01*
X7584Y1677D01*
X7532Y1756D01*
X7453Y1809D01*
X7360Y1827D01*
X7267Y1809D01*
X7189Y1756D01*
X7136Y1677D01*
X7118Y1585D01*
Y1364D01*
X7013D01*
X6702Y1674D01*
X6711Y1742D01*
X6699Y1833D01*
X6664Y1919D01*
X6608Y1992D01*
X6535Y2048D01*
X6471Y2074D01*
X6481Y2124D01*
X6665D01*
Y2470D01*
X6309D01*
Y2520D01*
X6259D01*
Y2915D01*
X5967D01*
X5953Y2915D01*
X5917D01*
X5903Y2915D01*
X5205D01*
Y2124D01*
X5408D01*
Y1856D01*
X5420Y1797D01*
X5453Y1747D01*
X6014Y1187D01*
X5988Y1125D01*
X5976Y1034D01*
X5988Y942D01*
X6023Y857D01*
X6079Y784D01*
X6153Y728D01*
X6176Y718D01*
Y443D01*
X6188Y384D01*
X6221Y334D01*
X6486Y69D01*
X6515Y50D01*
X6500Y0D01*
X0D01*
Y7874D01*
X19685D01*
Y0D01*
D02*
G37*
G36*
X16760Y2845D02*
X18095D01*
Y2635D01*
X17501D01*
Y2240D01*
X17451D01*
Y2190D01*
X16760D01*
Y1948D01*
X16370D01*
Y2135D01*
X14989D01*
Y1393D01*
X14103D01*
Y1585D01*
X14084Y1677D01*
X14032Y1756D01*
X13953Y1809D01*
X13860Y1827D01*
X13767Y1809D01*
X13689Y1756D01*
X13636Y1677D01*
X13636Y1675D01*
X13585D01*
X13584Y1677D01*
X13532Y1756D01*
X13453Y1809D01*
X13360Y1827D01*
X13267Y1809D01*
X13189Y1756D01*
X13136Y1677D01*
X13136Y1675D01*
X13085D01*
X13084Y1677D01*
X13032Y1756D01*
X13013Y1768D01*
Y2474D01*
X13002Y2533D01*
X12968Y2583D01*
X12655Y2896D01*
X12674Y2942D01*
X14989D01*
Y2345D01*
X16370D01*
Y3135D01*
X16407Y3165D01*
X16440Y3187D01*
X16525Y3272D01*
X16760D01*
Y2845D01*
D02*
G37*
G36*
X18095Y3687D02*
Y3635D01*
X16760D01*
Y3578D01*
X16462D01*
X16420Y3570D01*
X16370Y3599D01*
Y4135D01*
X14989D01*
Y3448D01*
X10017D01*
X10007Y3498D01*
X10068Y3523D01*
X10141Y3579D01*
X10197Y3652D01*
X10207Y3676D01*
X13307D01*
X13366Y3687D01*
X13415Y3721D01*
X13923Y4229D01*
X13953Y4235D01*
X14032Y4287D01*
X14084Y4366D01*
X14102Y4453D01*
X17328D01*
X18095Y3687D01*
D02*
G37*
G36*
X7636Y4366D02*
X7689Y4287D01*
X7767Y4235D01*
X7860Y4216D01*
X7953Y4235D01*
X8032Y4287D01*
X8084Y4366D01*
X8085Y4368D01*
X8136D01*
X8136Y4366D01*
X8189Y4287D01*
X8207Y4275D01*
Y3648D01*
X8219Y3589D01*
X8252Y3539D01*
X8439Y3353D01*
X8418Y3303D01*
X7718D01*
X7701Y3353D01*
X7740Y3382D01*
X7796Y3455D01*
X7831Y3541D01*
X7843Y3632D01*
X7831Y3723D01*
X7796Y3808D01*
X7740Y3882D01*
X7667Y3938D01*
X7582Y3973D01*
X7490Y3985D01*
X7399Y3973D01*
X7375Y3963D01*
X7125Y4213D01*
Y4293D01*
X7175Y4308D01*
X7189Y4287D01*
X7267Y4235D01*
X7360Y4216D01*
X7453Y4235D01*
X7532Y4287D01*
X7584Y4366D01*
X7585Y4368D01*
X7636D01*
X7636Y4366D01*
D02*
G37*
%LPC*%
G36*
X977Y541D02*
X635D01*
Y198D01*
X688Y205D01*
X784Y245D01*
X867Y309D01*
X930Y391D01*
X970Y487D01*
X977Y541D01*
D02*
G37*
G36*
X7381Y2696D02*
X7085D01*
X7090Y2655D01*
X7125Y2570D01*
X7181Y2496D01*
X7255Y2440D01*
X7340Y2405D01*
X7381Y2400D01*
Y2696D01*
D02*
G37*
G36*
X17401Y2635D02*
X16760D01*
Y2290D01*
X17401D01*
Y2635D01*
D02*
G37*
G36*
X14507Y2561D02*
X14466Y2556D01*
X14381Y2520D01*
X14307Y2464D01*
X14251Y2391D01*
X14216Y2306D01*
X14211Y2265D01*
X14507D01*
Y2561D01*
D02*
G37*
G36*
X14607D02*
Y2265D01*
X14904D01*
X14898Y2306D01*
X14863Y2391D01*
X14807Y2464D01*
X14734Y2520D01*
X14648Y2556D01*
X14607Y2561D01*
D02*
G37*
G36*
X935Y3566D02*
X832Y3552D01*
X736Y3513D01*
X653Y3449D01*
X590Y3367D01*
X550Y3271D01*
X536Y3167D01*
X550Y3064D01*
X590Y2968D01*
X653Y2885D01*
X736Y2822D01*
X832Y2782D01*
X935Y2769D01*
X1038Y2782D01*
X1134Y2822D01*
X1217Y2885D01*
X1280Y2968D01*
X1320Y3064D01*
X1334Y3167D01*
X1320Y3271D01*
X1280Y3367D01*
X1217Y3449D01*
X1134Y3513D01*
X1038Y3552D01*
X935Y3566D01*
D02*
G37*
G36*
X535Y541D02*
X193D01*
X200Y487D01*
X239Y391D01*
X303Y309D01*
X385Y245D01*
X481Y205D01*
X535Y198D01*
Y541D01*
D02*
G37*
G36*
X2720D02*
X2378D01*
X2385Y487D01*
X2424Y391D01*
X2488Y309D01*
X2570Y245D01*
X2666Y205D01*
X2720Y198D01*
Y541D01*
D02*
G37*
G36*
X7778Y2696D02*
X7481D01*
Y2400D01*
X7522Y2405D01*
X7608Y2440D01*
X7681Y2496D01*
X7737Y2570D01*
X7772Y2655D01*
X7778Y2696D01*
D02*
G37*
G36*
X6359Y2915D02*
Y2570D01*
X6665D01*
Y2915D01*
X6359D01*
D02*
G37*
G36*
X3259Y1968D02*
X2540D01*
Y1426D01*
X3259D01*
Y1968D01*
D02*
G37*
G36*
X535Y983D02*
X481Y976D01*
X385Y936D01*
X303Y872D01*
X239Y790D01*
X200Y694D01*
X193Y641D01*
X535D01*
Y983D01*
D02*
G37*
G36*
X2440Y1968D02*
X1721D01*
Y1426D01*
X2440D01*
Y1968D01*
D02*
G37*
G36*
X635Y983D02*
Y641D01*
X977D01*
X970Y694D01*
X930Y790D01*
X867Y872D01*
X784Y936D01*
X688Y976D01*
X635Y983D01*
D02*
G37*
G36*
X4234Y1485D02*
X3889D01*
Y1180D01*
X4234D01*
Y1485D01*
D02*
G37*
G36*
X2440Y2610D02*
X1721D01*
Y2068D01*
X2440D01*
Y2610D01*
D02*
G37*
G36*
X3259D02*
X2540D01*
Y2068D01*
X3259D01*
Y2610D01*
D02*
G37*
G36*
X3162Y541D02*
X2820D01*
Y198D01*
X2873Y205D01*
X2969Y245D01*
X3052Y309D01*
X3115Y391D01*
X3155Y487D01*
X3162Y541D01*
D02*
G37*
G36*
X14507Y2165D02*
X14211D01*
X14216Y2123D01*
X14251Y2038D01*
X14307Y1965D01*
X14381Y1909D01*
X14466Y1874D01*
X14507Y1868D01*
Y2165D01*
D02*
G37*
G36*
X14904D02*
X14607D01*
Y1868D01*
X14648Y1874D01*
X14734Y1909D01*
X14807Y1965D01*
X14863Y2038D01*
X14898Y2123D01*
X14904Y2165D01*
D02*
G37*
G36*
X974Y7066D02*
X627D01*
X634Y7012D01*
X674Y6914D01*
X738Y6831D01*
X822Y6767D01*
X919Y6726D01*
X974Y6719D01*
Y7066D01*
D02*
G37*
G36*
X1420D02*
X1074D01*
Y6719D01*
X1128Y6726D01*
X1225Y6767D01*
X1309Y6831D01*
X1373Y6914D01*
X1413Y7012D01*
X1420Y7066D01*
D02*
G37*
G36*
X11181Y7520D02*
X11077Y7506D01*
X10979Y7466D01*
X10896Y7401D01*
X10832Y7318D01*
X10791Y7221D01*
X10778Y7116D01*
X10791Y7012D01*
X10832Y6914D01*
X10896Y6831D01*
X10979Y6767D01*
X11077Y6726D01*
X11181Y6713D01*
X11286Y6726D01*
X11383Y6767D01*
X11466Y6831D01*
X11530Y6914D01*
X11571Y7012D01*
X11585Y7116D01*
X11571Y7221D01*
X11530Y7318D01*
X11466Y7401D01*
X11383Y7466D01*
X11286Y7506D01*
X11181Y7520D01*
D02*
G37*
G36*
X2737Y6468D02*
Y6172D01*
X3033D01*
X3028Y6213D01*
X2993Y6299D01*
X2937Y6372D01*
X2864Y6428D01*
X2778Y6463D01*
X2737Y6468D01*
D02*
G37*
G36*
X6260Y6544D02*
X6168Y6532D01*
X6083Y6497D01*
X6010Y6441D01*
X5954Y6367D01*
X5940Y6334D01*
X4971D01*
X4961Y6358D01*
X4905Y6431D01*
X4832Y6487D01*
X4747Y6522D01*
X4656Y6534D01*
X4564Y6522D01*
X4479Y6487D01*
X4406Y6431D01*
X4350Y6358D01*
X4315Y6272D01*
X4302Y6181D01*
X4315Y6090D01*
X4350Y6005D01*
X4406Y5931D01*
X4479Y5875D01*
X4564Y5840D01*
X4656Y5828D01*
X4747Y5840D01*
X4832Y5875D01*
X4905Y5931D01*
X4961Y6005D01*
X4971Y6028D01*
X5948D01*
X5954Y6014D01*
X6010Y5941D01*
X6083Y5885D01*
X6168Y5850D01*
X6260Y5838D01*
X6351Y5850D01*
X6436Y5885D01*
X6509Y5941D01*
X6566Y6014D01*
X6601Y6100D01*
X6613Y6191D01*
X6601Y6282D01*
X6566Y6367D01*
X6509Y6441D01*
X6436Y6497D01*
X6351Y6532D01*
X6260Y6544D01*
D02*
G37*
G36*
X5068Y7066D02*
X4721D01*
X4728Y7012D01*
X4769Y6914D01*
X4833Y6831D01*
X4916Y6767D01*
X5014Y6726D01*
X5068Y6719D01*
Y7066D01*
D02*
G37*
G36*
X974Y7513D02*
X919Y7506D01*
X822Y7466D01*
X738Y7401D01*
X674Y7318D01*
X634Y7221D01*
X627Y7166D01*
X974D01*
Y7513D01*
D02*
G37*
G36*
X1074D02*
Y7166D01*
X1420D01*
X1413Y7221D01*
X1373Y7318D01*
X1309Y7401D01*
X1225Y7466D01*
X1128Y7506D01*
X1074Y7513D01*
D02*
G37*
G36*
X9609Y7066D02*
X9263D01*
Y6719D01*
X9317Y6726D01*
X9414Y6767D01*
X9498Y6831D01*
X9562Y6914D01*
X9602Y7012D01*
X9609Y7066D01*
D02*
G37*
G36*
X5515D02*
X5168D01*
Y6719D01*
X5223Y6726D01*
X5320Y6767D01*
X5403Y6831D01*
X5468Y6914D01*
X5508Y7012D01*
X5515Y7066D01*
D02*
G37*
G36*
X9163D02*
X8816D01*
X8823Y7012D01*
X8863Y6914D01*
X8927Y6831D01*
X9011Y6767D01*
X9108Y6726D01*
X9163Y6719D01*
Y7066D01*
D02*
G37*
G36*
X2637Y6468D02*
X2596Y6463D01*
X2510Y6428D01*
X2437Y6372D01*
X2381Y6299D01*
X2346Y6213D01*
X2341Y6172D01*
X2637D01*
Y6468D01*
D02*
G37*
G36*
X6409Y4586D02*
X6113D01*
Y4289D01*
X6154Y4295D01*
X6240Y4330D01*
X6313Y4386D01*
X6369Y4459D01*
X6404Y4544D01*
X6409Y4586D01*
D02*
G37*
G36*
X6013Y4982D02*
X5972Y4977D01*
X5886Y4942D01*
X5813Y4885D01*
X5757Y4812D01*
X5722Y4727D01*
X5717Y4686D01*
X6013D01*
Y4982D01*
D02*
G37*
G36*
Y4586D02*
X5717D01*
X5722Y4544D01*
X5757Y4459D01*
X5813Y4386D01*
X5886Y4330D01*
X5972Y4295D01*
X6013Y4289D01*
Y4586D01*
D02*
G37*
G36*
X4684Y4254D02*
X4339D01*
Y3948D01*
X4684D01*
Y4254D01*
D02*
G37*
G36*
X5130D02*
X4784D01*
Y3948D01*
X5130D01*
Y4254D01*
D02*
G37*
G36*
X6113Y4982D02*
Y4686D01*
X6409D01*
X6404Y4727D01*
X6369Y4812D01*
X6313Y4885D01*
X6240Y4942D01*
X6154Y4977D01*
X6113Y4982D01*
D02*
G37*
G36*
X1692Y6419D02*
X1347D01*
Y6113D01*
X1692D01*
Y6419D01*
D02*
G37*
G36*
X2137D02*
X1792D01*
Y6113D01*
X2137D01*
Y6419D01*
D02*
G37*
G36*
X3033Y6072D02*
X2737D01*
Y5776D01*
X2778Y5781D01*
X2864Y5816D01*
X2937Y5872D01*
X2993Y5946D01*
X3028Y6031D01*
X3033Y6072D01*
D02*
G37*
G36*
X2137Y6013D02*
X1347D01*
Y5721D01*
X1347Y5707D01*
Y5671D01*
X1347Y5657D01*
Y5606D01*
X1330Y5563D01*
X540D01*
Y5244D01*
X118Y4823D01*
X85Y4773D01*
X73Y4715D01*
Y1998D01*
X85Y1940D01*
X118Y1890D01*
X1034Y975D01*
X1083Y941D01*
X1142Y930D01*
X1189D01*
Y195D01*
X1980D01*
Y930D01*
X2485D01*
X2501Y882D01*
X2488Y872D01*
X2424Y790D01*
X2385Y694D01*
X2378Y641D01*
X2770D01*
X3162D01*
X3155Y694D01*
X3115Y790D01*
X3052Y872D01*
X3039Y882D01*
X3055Y930D01*
X3214D01*
X3374Y770D01*
Y195D01*
X4165D01*
Y986D01*
X3591D01*
X3447Y1130D01*
X3468Y1180D01*
X3483Y1180D01*
X3789D01*
Y1485D01*
X3443D01*
Y1220D01*
X3443Y1204D01*
X3393Y1183D01*
X3386Y1191D01*
X3336Y1224D01*
X3278Y1236D01*
X1205D01*
X379Y2061D01*
Y4651D01*
X512Y4784D01*
X540Y4772D01*
Y4772D01*
X1330D01*
Y4916D01*
X1347Y4959D01*
X2137D01*
Y5657D01*
X2137Y5671D01*
Y5707D01*
X2137Y5721D01*
Y6013D01*
D02*
G37*
G36*
X2637Y6072D02*
X2341D01*
X2346Y6031D01*
X2381Y5946D01*
X2437Y5872D01*
X2510Y5816D01*
X2596Y5781D01*
X2637Y5776D01*
Y6072D01*
D02*
G37*
%LPD*%
D10*
X4734Y3898D02*
D03*
Y3150D02*
D03*
X3848Y3130D02*
D03*
Y3878D02*
D03*
X3839Y1535D02*
D03*
Y2283D02*
D03*
X1742Y6063D02*
D03*
Y5315D02*
D03*
D13*
X5561Y2520D02*
D03*
X6309D02*
D03*
D16*
X6949Y1211D02*
X7360D01*
X13327Y423D02*
Y1164D01*
X13367Y1204D01*
X13360Y1211D02*
X13367Y1204D01*
X6329Y1034D02*
Y1088D01*
X13860Y4606D02*
X17392D01*
X13860Y4382D02*
Y4606D01*
X13307Y3829D02*
X13860Y4382D01*
X9892Y3829D02*
X13307D01*
X7087Y6054D02*
Y7116D01*
X6972Y5940D02*
X7087Y6054D01*
X6972Y4150D02*
Y5940D01*
Y4150D02*
X7490Y3632D01*
X7360Y4833D02*
X7372Y4844D01*
Y5659D01*
X9872Y1634D02*
X10640Y2402D01*
X9872Y1222D02*
Y1634D01*
X10640Y2402D02*
X12224D01*
X8750Y2884D02*
X12451D01*
X8913Y3095D02*
X15324D01*
X9087Y3295D02*
X16332D01*
X12451Y2884D02*
X12860Y2474D01*
X8860Y3522D02*
X9087Y3295D01*
X7860Y793D02*
Y1211D01*
X7616Y549D02*
X7860Y793D01*
X6883Y549D02*
X7616D01*
X6851Y581D02*
X6883Y549D01*
X6594Y177D02*
X8081D01*
X6329Y443D02*
X6594Y177D01*
X6329Y443D02*
Y1034D01*
X8360Y457D02*
Y1211D01*
X8081Y177D02*
X8360Y457D01*
X8859Y1209D02*
X8860Y1211D01*
X8859Y581D02*
Y1209D01*
X9860Y1211D02*
X9872Y1222D01*
X13860Y4833D02*
Y5376D01*
X14223Y5738D01*
X12860Y1211D02*
Y2474D01*
X8484Y3150D02*
X8750Y2884D01*
X8360Y3648D02*
X8913Y3095D01*
X15324D02*
X15679Y2740D01*
X16332Y3295D02*
X16462Y3425D01*
X17266D01*
X17451Y3240D01*
X9892Y3829D02*
Y4801D01*
X12360Y4833D02*
Y5652D01*
X11811Y6201D02*
X12360Y5652D01*
X6250Y6181D02*
X6260Y6191D01*
X4656Y6181D02*
X6250D01*
X679Y5167D02*
X935D01*
X226Y4715D02*
X679Y5167D01*
X226Y1998D02*
Y4715D01*
Y1998D02*
X1142Y1083D01*
X4734Y3150D02*
X8484D01*
X8360Y3648D02*
Y4833D01*
X9860D02*
X9892Y4801D01*
X17392Y4606D02*
X18248Y3750D01*
X13860Y4606D02*
Y4833D01*
X2132Y4167D02*
X2500Y3799D01*
X2490Y4026D02*
X2638Y3878D01*
X3848D01*
X3868Y3150D02*
X4734D01*
X3848Y3130D02*
X3868Y3150D01*
X3839Y3120D02*
X3848Y3130D01*
X3839Y2283D02*
Y3120D01*
X3278Y1083D02*
X3770Y591D01*
X1142Y1083D02*
X3278D01*
X935Y5167D02*
X974Y5128D01*
X1791D01*
X935Y4167D02*
X2132D01*
X8860Y3522D02*
Y4833D01*
X18248Y1959D02*
Y3750D01*
X18191Y1902D02*
X18248Y1959D01*
X18191Y1883D02*
Y1902D01*
X18103Y1795D02*
X18191Y1883D01*
X15734Y1795D02*
X18103D01*
X15679Y1740D02*
X15734Y1795D01*
X13988Y1211D02*
X14018Y1240D01*
X17569D01*
X9675Y7638D02*
X10197Y7116D01*
X6624Y7638D02*
X9675D01*
X6102Y7116D02*
X6624Y7638D01*
X5571Y7648D02*
X6102Y7116D01*
X2539Y7648D02*
X5571D01*
X2008Y7116D02*
X2539Y7648D01*
X5561Y1856D02*
Y2520D01*
Y1856D02*
X6329Y1088D01*
X6327Y1870D02*
X6358Y1839D01*
Y1742D02*
Y1839D01*
X6418Y1742D02*
X6949Y1211D01*
X6358Y1742D02*
X6418D01*
D17*
X935Y5167D02*
D03*
D18*
Y4167D02*
D03*
Y3167D02*
D03*
X2770Y591D02*
D03*
X585D02*
D03*
D19*
X3770D02*
D03*
X1585D02*
D03*
D20*
X9213Y7116D02*
D03*
X10197D02*
D03*
X11181D02*
D03*
X5118D02*
D03*
X6102D02*
D03*
X7087D02*
D03*
X1024D02*
D03*
X2008D02*
D03*
X2992D02*
D03*
D21*
X7431Y2746D02*
D03*
X2687Y6122D02*
D03*
X6063Y4636D02*
D03*
X14557Y2215D02*
D03*
X13327Y423D02*
D03*
X7490Y3632D02*
D03*
X7372Y5659D02*
D03*
X12224Y2402D02*
D03*
X6851Y581D02*
D03*
X6329Y1034D02*
D03*
X8859Y581D02*
D03*
X14223Y5738D02*
D03*
X9892Y3829D02*
D03*
X11811Y6201D02*
D03*
X6260Y6191D02*
D03*
X4656Y6181D02*
D03*
X6358Y1742D02*
D03*
D22*
X2490Y2018D02*
D03*
Y4026D02*
D03*
D23*
X7360Y4833D02*
D03*
X7860D02*
D03*
X8360D02*
D03*
X8860D02*
D03*
X9360D02*
D03*
X9860D02*
D03*
X10360D02*
D03*
X10860D02*
D03*
X11360D02*
D03*
X11860D02*
D03*
X12360D02*
D03*
X12860D02*
D03*
X13360D02*
D03*
X13860D02*
D03*
X7360Y1211D02*
D03*
X7860D02*
D03*
X8360D02*
D03*
X8860D02*
D03*
X9360D02*
D03*
X9860D02*
D03*
X10360D02*
D03*
X10860D02*
D03*
X11360D02*
D03*
X11860D02*
D03*
X12360D02*
D03*
X12860D02*
D03*
X13360D02*
D03*
X13860D02*
D03*
D24*
X17451Y1240D02*
D03*
X15679Y1740D02*
D03*
X17451Y2240D02*
D03*
X15679Y2740D02*
D03*
X17451Y3240D02*
D03*
X15679Y3740D02*
D03*
M02*
